<svg width="30" height="24" viewBox="0 0 30 24" fill="none" xmlns="http://www.w3.org/2000/svg">
<rect width="30" height="24" fill="#F5F5F5"/>
<g clip-path="url(#clip0_1_3)">
<rect width="1024" height="1034" transform="translate(-803 -509)" fill="white"/>
<rect x="-34.5" y="-488.5" width="235" height="973" rx="9.5" fill="url(#paint0_linear_1_3)"/>
<rect x="-34.5" y="-488.5" width="235" height="973" rx="9.5" stroke="#DFDFDF"/>
<rect x="-15" y="-12" width="196" height="49" rx="5" fill="#9300FF"/>
<path d="M12.7594 3.02812L10.3641 5.42344C9.64688 5.62031 8.98125 5.98125 8.41875 6.47812L7.17188 7.58906C6.69375 8.01562 6.07031 8.25 5.42813 8.25H4.5V14.25C5.45625 14.2781 6.36563 14.6672 7.04531 15.3469L8.71406 17.0156L9.04219 17.3438L10.3078 18.6094C10.5984 18.9 11.0766 18.9 11.3672 18.6094C11.4469 18.5297 11.5078 18.4359 11.5406 18.3375C11.6719 17.9766 11.9766 17.7047 12.3516 17.6203C12.7266 17.5359 13.1203 17.6484 13.3922 17.925L13.8984 18.4219C14.4422 18.9656 15.3234 18.9656 15.8625 18.4219C16.1156 18.1687 16.2516 17.8453 16.2656 17.5125C16.2844 17.1 16.5281 16.7344 16.9031 16.5563C17.2781 16.3781 17.7141 16.4156 18.0469 16.6547C18.4875 16.9687 19.1016 16.9266 19.4953 16.5328C19.9359 16.0922 19.9359 15.3797 19.4953 14.9437L15.9422 11.3906L14.2641 12.9375C12.9844 14.1187 11.0203 14.1375 9.71719 12.9797C8.23125 11.6578 8.19844 9.35156 9.64219 7.9875L12.9281 4.88437C14.2125 3.675 15.9094 3 17.6766 3C19.3687 3 21.0047 3.62344 22.2656 4.74375L23.6766 6H29.25C29.6625 6 30 6.3375 30 6.75V16.5C30 17.3297 29.3297 18 28.5 18H27C26.4469 18 25.9594 17.7 25.7016 17.25H21.7219C21.5625 17.5641 21.3516 17.8641 21.0891 18.1266C20.2875 18.9281 19.1766 19.2422 18.1359 19.0687C17.9672 19.4109 17.7375 19.7297 17.4516 20.0156C16.1719 21.2953 14.1703 21.4219 12.7453 20.3953C11.5687 21.3703 9.81562 21.3094 8.71406 20.2031L7.45312 18.9375L7.125 18.6094L5.45625 16.9406C5.19844 16.6828 4.86094 16.5328 4.5 16.5047C4.5 17.3297 3.825 18 3 18H1.5C0.670312 18 0 17.3297 0 16.5V6.75C0 6.3375 0.3375 6 0.75 6H5.42813C5.52188 6 5.61094 5.96719 5.67656 5.90625L6.91875 4.8C8.22656 3.64219 9.90938 3 11.6578 3H12.1406C12.3469 3 12.5578 3.00937 12.7594 3.02812ZM25.5 15V8.25H23.25C22.9734 8.25 22.7063 8.14687 22.5047 7.96406L20.775 6.42656C19.9219 5.66719 18.8203 5.25 17.6766 5.25C16.4859 5.25 15.3422 5.70469 14.475 6.52031L11.1891 9.62344C10.7063 10.0828 10.7156 10.8562 11.2125 11.2969C11.6484 11.6859 12.3094 11.6766 12.7359 11.2828L16.1063 8.17031C16.5609 7.74844 17.2734 7.77656 17.6953 8.23594C18.1172 8.69531 18.0891 9.40313 17.6297 9.825L17.5922 9.8625L21.0797 13.35C21.5484 13.8187 21.8531 14.3953 21.9891 14.9953H25.5V15ZM3 15.75C3 15.5511 2.92098 15.3603 2.78033 15.2197C2.63968 15.079 2.44891 15 2.25 15C2.05109 15 1.86032 15.079 1.71967 15.2197C1.57902 15.3603 1.5 15.5511 1.5 15.75C1.5 15.9489 1.57902 16.1397 1.71967 16.2803C1.86032 16.421 2.05109 16.5 2.25 16.5C2.44891 16.5 2.63968 16.421 2.78033 16.2803C2.92098 16.1397 3 15.9489 3 15.75ZM27.75 16.5C27.9489 16.5 28.1397 16.421 28.2803 16.2803C28.421 16.1397 28.5 15.9489 28.5 15.75C28.5 15.5511 28.421 15.3603 28.2803 15.2197C28.1397 15.079 27.9489 15 27.75 15C27.5511 15 27.3603 15.079 27.2197 15.2197C27.079 15.3603 27 15.5511 27 15.75C27 15.9489 27.079 16.1397 27.2197 16.2803C27.3603 16.421 27.5511 16.5 27.75 16.5Z" fill="white"/>
</g>
<defs>
<linearGradient id="paint0_linear_1_3" x1="83" y1="-489" x2="83" y2="485" gradientUnits="userSpaceOnUse">
<stop stop-color="#9300FF" stop-opacity="0.05"/>
<stop offset="1" stop-color="#580099" stop-opacity="0.05"/>
</linearGradient>
<clipPath id="clip0_1_3">
<rect width="1024" height="1034" fill="white" transform="translate(-803 -509)"/>
</clipPath>
</defs>
</svg>
