<svg width="82" height="70" viewBox="0 0 82 70" fill="none" xmlns="http://www.w3.org/2000/svg">
<mask id="path-1-inside-1_216_117" fill="white">
<path d="M0 0H82V70H0V0Z"/>
</mask>
<path d="M0 1H82V-1H0V1Z" fill="#9300FF" fill-opacity="0.1" mask="url(#path-1-inside-1_216_117)"/>
<path d="M51.5882 35H38.1765M48.7647 39.5L53 35L48.7647 30.5M41.7059 27.5V26C41.7059 25.2044 41.4084 24.4413 40.8789 23.8787C40.3494 23.3161 39.6312 23 38.8824 23H31.8235C31.0747 23 30.3565 23.3161 29.827 23.8787C29.2975 24.4413 29 25.2044 29 26V44C29 44.7956 29.2975 45.5587 29.827 46.1213C30.3565 46.6839 31.0747 47 31.8235 47H38.8824C39.6312 47 40.3494 46.6839 40.8789 46.1213C41.4084 45.5587 41.7059 44.7956 41.7059 44V42.5" stroke="#9300FF" stroke-width="2" stroke-linecap="round" stroke-linejoin="round"/>
</svg>
