<svg width="32" height="32" viewBox="0 0 32 32" fill="none" xmlns="http://www.w3.org/2000/svg">
<path d="M25.3333 28.0001H6.66659C6.31296 28.0001 5.97383 27.8596 5.72378 27.6095C5.47373 27.3595 5.33325 27.0203 5.33325 26.6667V14.6667H1.33325L15.1026 2.14939C15.3481 1.92603 15.668 1.80225 15.9999 1.80225C16.3318 1.80225 16.6518 1.92603 16.8973 2.14939L30.6666 14.6667H26.6666V26.6667C26.6666 27.0203 26.5261 27.3595 26.2761 27.6095C26.026 27.8596 25.6869 28.0001 25.3333 28.0001ZM7.99992 25.3334H23.9999V12.2094L15.9999 4.93739L7.99992 12.2094V25.3334ZM10.6666 20.0001H21.3333V22.6667H10.6666V20.0001Z" fill="#9300FF"/>
</svg>
